<svg xmlns="http://www.w3.org/2000/svg" width="62" height="62" viewBox="0 0 62 62">
  <g id="Group_1527" data-name="Group 1527" transform="translate(-1302.729 -687.729)">
    <circle id="Ellipse_75" data-name="Ellipse 75" cx="31" cy="31" r="31" transform="translate(1302.729 687.729)" fill="#0f0f0f"/>
    <g id="Layer_2" data-name="Layer 2" transform="translate(1319.838 704.84)">
      <path id="Path_12145" data-name="Path 12145" d="M2.049,28.271a1.049,1.049,0,0,1-.994-1.38l1.8-5.406a13.666,13.666,0,1,1,4.929,4.929l-5.405,1.8a1.063,1.063,0,0,1-.331.053Zm5.873-4.053a1.049,1.049,0,0,1,.561.164,11.571,11.571,0,1,0-3.592-3.588,1.049,1.049,0,0,1,.1.894L3.7,25.567l3.88-1.292A1.037,1.037,0,0,1,7.922,24.217Z" transform="translate(-0.998 -0.938)" fill="#fff"/>
    </g>
  </g>
</svg>
