<svg xmlns="http://www.w3.org/2000/svg" width="15.196" height="21.607" viewBox="0 0 15.196 21.607">
  <g id="Group_1912" data-name="Group 1912" transform="translate(0.5 -23.496)">
    <g id="Group_157" data-name="Group 157" transform="translate(0 23.996)">
      <path id="Path_73" data-name="Path 73" d="M9.1,59.46a7.1,7.1,0,0,0-7.1,7.1,6.519,6.519,0,0,0,.359,2.219C3.942,73.2,9.1,79.758,9.1,79.758s5.156-6.559,6.739-10.981a6.519,6.519,0,0,0,.359-2.219A7.082,7.082,0,0,0,9.1,59.46Zm0,3.59a3.52,3.52,0,0,1,3.524,3.524h0A3.52,3.52,0,0,1,9.1,70.1h0a3.52,3.52,0,0,1-3.524-3.524h0A3.531,3.531,0,0,1,9.1,63.05Z" transform="translate(-2 -59.46)" fill="none" stroke="#fff" stroke-width="1"/>
    </g>
  </g>
</svg>
