<svg xmlns="http://www.w3.org/2000/svg" width="19.55" height="19.537" viewBox="0 0 19.55 19.537">
  <g id="noun_Phone_4397837" transform="translate(0.1 0.1)">
    <path id="Path_464" data-name="Path 464" d="M19.693,24.337a9.292,9.292,0,0,1-1.267-.132,9.466,9.466,0,0,1-2.134-.655,17.663,17.663,0,0,1-2.813-1.541A21.055,21.055,0,0,1,10.142,19.2a22.076,22.076,0,0,1-2.326-2.648A19.025,19.025,0,0,1,6.327,14.2a12.806,12.806,0,0,1-.852-1.971A10.485,10.485,0,0,1,5.087,10.7,5.13,5.13,0,0,1,5,9.648c.012-.22.019-.347.02-.379a.452.452,0,0,1,0-.046,2.281,2.281,0,0,1,.208-.662,1.814,1.814,0,0,1,.414-.569L8.265,5.376A1.2,1.2,0,0,1,9.136,5a1.068,1.068,0,0,1,.658.217,1.7,1.7,0,0,1,.417.453l.014.023L12.34,9.707a1.288,1.288,0,0,1,.131.918,1.566,1.566,0,0,1-.428.8l-.952.952-.005.015c0,.011-.007.02-.008.027a3.4,3.4,0,0,0,.314.808,8.422,8.422,0,0,0,.706,1.114,12.529,12.529,0,0,0,1.366,1.528,12.749,12.749,0,0,0,1.545,1.382,8.838,8.838,0,0,0,1.112.714,2.7,2.7,0,0,0,.624.256l.184.037.019-.006.014-.005,1.108-1.128.017-.016a1.548,1.548,0,0,1,1.054-.4,1.4,1.4,0,0,1,.651.135.316.316,0,0,1,.074.03l3.816,2.254a1.325,1.325,0,0,1,.653.876c0,.007,0,.015,0,.022a1.245,1.245,0,0,1-.372,1.072L21.335,23.7a1.8,1.8,0,0,1-.556.4,2.26,2.26,0,0,1-.662.208.359.359,0,0,1-.048,0l-.085.008A2.777,2.777,0,0,1,19.693,24.337ZM5.695,9.3q0,.087-.02.383a4.561,4.561,0,0,0,.076.907,9.867,9.867,0,0,0,.364,1.434,12.1,12.1,0,0,0,.808,1.864,18.425,18.425,0,0,0,1.437,2.261,21.436,21.436,0,0,0,2.258,2.568,20.381,20.381,0,0,0,3.23,2.726,17.022,17.022,0,0,0,2.7,1.483,8.989,8.989,0,0,0,1.978.612,8.861,8.861,0,0,0,1.165.124c.093,0,.169,0,.227-.008l.112-.01a1.585,1.585,0,0,0,.454-.146,1.171,1.171,0,0,0,.362-.259l2.642-2.623a.569.569,0,0,0,.182-.5.673.673,0,0,0-.339-.421L19.57,17.478a.3.3,0,0,1-.069-.029.7.7,0,0,0-.361-.071.881.881,0,0,0-.6.224l-1.118,1.139a.65.65,0,0,1-.261.152.567.567,0,0,1-.3.041l-.247-.05a3.326,3.326,0,0,1-.8-.316,9.355,9.355,0,0,1-1.2-.77,13.4,13.4,0,0,1-1.624-1.451,13.163,13.163,0,0,1-1.436-1.609,9.064,9.064,0,0,1-.76-1.2,3.915,3.915,0,0,1-.385-1.036.319.319,0,0,1-.006-.063.8.8,0,0,1,.047-.256.651.651,0,0,1,.149-.259l.969-.969a.9.9,0,0,0,.245-.464.624.624,0,0,0-.063-.458L9.635,6.021a1.024,1.024,0,0,0-.246-.265.4.4,0,0,0-.254-.082.538.538,0,0,0-.395.178l-2.63,2.63a1.171,1.171,0,0,0-.271.373A1.6,1.6,0,0,0,5.695,9.3Z" transform="translate(-5 -5)" fill="#e2e2e2" stroke="#fff" stroke-width="0.2"/>
  </g>
</svg>
