<svg xmlns="http://www.w3.org/2000/svg" width="36" height="36" viewBox="0 0 36 36">
  <g id="Group_2004" data-name="Group 2004" transform="translate(-1349 -55)">
    <circle id="Ellipse_101" data-name="Ellipse 101" cx="18" cy="18" r="18" transform="translate(1349 55)" fill="#fff" opacity="0.471"/>
    <path id="Path_301" data-name="Path 301" d="M412.927,335.276l-3.8-3.8a7.051,7.051,0,0,0,1.732-4.692,7.247,7.247,0,0,0-7.262-7.262,7.165,7.165,0,0,0-7.262,7.206,7.251,7.251,0,0,0,11.954,5.53l3.8,3.8a.54.54,0,0,0,.782,0A.5.5,0,0,0,412.927,335.276Zm-9.328-2.4a6.144,6.144,0,1,1,6.144-6.144A6.127,6.127,0,0,1,403.6,332.874Z" transform="translate(962.672 -254.515)" fill="#fff"/>
  </g>
</svg>
