<svg xmlns="http://www.w3.org/2000/svg" width="15.246" height="21.8" viewBox="0 0 15.246 21.8">
  <g id="Group_1992" data-name="Group 1992" transform="translate(0 -23.996)">
    <g id="Group_157" data-name="Group 157" transform="translate(0 23.996)">
      <path id="Path_73" data-name="Path 73" d="M9.623,59.46A7.628,7.628,0,0,0,2,67.083a7,7,0,0,0,.386,2.383c1.7,4.749,7.237,11.794,7.237,11.794s5.538-7.045,7.237-11.794a7,7,0,0,0,.386-2.383A7.606,7.606,0,0,0,9.623,59.46Zm0,3.855A3.781,3.781,0,0,1,13.408,67.1h0a3.781,3.781,0,0,1-3.785,3.785h0A3.781,3.781,0,0,1,5.838,67.1h0a3.792,3.792,0,0,1,3.785-3.785Z" transform="translate(-2 -59.46)" fill="#828282"/>
    </g>
  </g>
</svg>
