<svg xmlns="http://www.w3.org/2000/svg" width="51" height="51" viewBox="0 0 51 51">
  <g id="Group_2089" data-name="Group 2089" transform="translate(-287 -2463)">
    <circle id="Ellipse_118" data-name="Ellipse 118" cx="25.5" cy="25.5" r="25.5" transform="translate(287 2463)" fill="#141414" opacity="0.471"/>
    <g id="Group_1971" data-name="Group 1971" transform="translate(302.314 2478.583)">
      <path id="Path_12207" data-name="Path 12207" d="M401.424,130.479l-6.262.037a.367.367,0,0,0-.366.366.394.394,0,0,0,.366.366l5.346-.037-5.566,5.639a.354.354,0,0,0,0,.513.354.354,0,0,0,.513,0l5.6-5.6-.037,5.346a.346.346,0,0,0,.366.366.367.367,0,0,0,.366-.366l.073-6.628Z" transform="translate(-381.907 -130.113)" fill="#fff" stroke="#fff" stroke-width="0.2"/>
      <path id="Path_12208" data-name="Path 12208" d="M401.908,327.6a.367.367,0,0,0-.366.366l.037,5.346-5.6-5.6a.362.362,0,0,0-.513.513l5.6,5.6-5.346-.037a.367.367,0,0,0-.366.366.346.346,0,0,0,.366.366l6.628.073-.073-6.628a.394.394,0,0,0-.366-.366Z" transform="translate(-382.428 -314.342)" fill="#fff" stroke="#fff" stroke-width="0.2"/>
      <path id="Path_12209" data-name="Path 12209" d="M200.36,131.908a.367.367,0,0,0,.366-.366l-.037-5.346,5.6,5.6a.354.354,0,0,0,.513,0,.354.354,0,0,0,0-.513l-5.6-5.639,5.346.037a.367.367,0,0,0,.366-.366.346.346,0,0,0-.366-.366l-6.628-.073.073,6.628a.376.376,0,0,0,.366.4Z" transform="translate(-199.774 -124.877)" fill="#fff" stroke="#fff" stroke-width="0.2"/>
      <path id="Path_12210" data-name="Path 12210" d="M204.669,334.713a.394.394,0,0,0-.366-.366l-5.346.037,5.6-5.6a.362.362,0,1,0-.513-.513l-5.6,5.6.037-5.346a.346.346,0,0,0-.366-.366.367.367,0,0,0-.366.366l-.073,6.628,6.628-.073a.367.367,0,0,0,.367-.366Z" transform="translate(-197.675 -314.866)" fill="#fff" stroke="#fff" stroke-width="0.2"/>
    </g>
  </g>
</svg>
